# xmcd
#
# Track frame offsets:
#	150
#	13617
#	27930
#	40236
#	53661
#	67125
#	97795
#	108825
#	121014
#	133389
#	164655
#	175182
#	188943
#	201735
#	214569
#
# Disc length: 3034
#
# Revision: 2
# Processed by: cddbd v1.5.1PL0 Copyright (c) Steve Scherf et al.
# Submitted via: audiograbber 1.83.01
# Normalized: r1:DSETVAR1
#
DISCID=d50bd80f
DTITLE=Various Artist - La Légende du blues [CD 1)
DYEAR=1900
DGENRE=Blues
TTITLE0=John Lee Hooker - Dirty Groundhog Blues
TTITLE1=Buddy Guy - Broken Hearted Blues
TTITLE2=Sonny Terry - Whoopin' The Blues
TTITLE3=Big Bill Bronzy - Wee Wee Hours Blues
TTITLE4=Sonny Boy Williamson - Better Cut That Out
TTITLE5=Ray Charles - Giorgia on my Mind
TTITLE6=BB King - When your Baby Packs up and Goes
TTITLE7=Memphis Slim - Whiskey and Gin Blues
TTITLE8=Roy Milton - Big Fat Mama
TTITLE9=Sonny Terry and Brownee McGhee - Blues For The Gamblers
TTITLE10=Robert Johnson - Love in Vain
TTITLE11=Big Joe Turner - Back Breaking Blues
TTITLE12=Howlin' Wolf - I've Got a Woman
TTITLE13=Ivory Joe Hunter - Landlord Blues
TTITLE14=Lonnie Johnson - Blues in G.
EXTD=
EXTT0=
EXTT1=
EXTT2=
EXTT3=
EXTT4=
EXTT5=
EXTT6=
EXTT7=
EXTT8=
EXTT9=
EXTT10=
EXTT11=
EXTT12=
EXTT13=
EXTT14=
PLAYORDER=
